<mxfile host="app.diagrams.net" modified="2024-06-14T04:31:31.477Z" agent="Mozilla/5.0 (Windows NT 10.0; Win64; x64) AppleWebKit/537.36 (KHTML, like Gecko) Chrome/125.0.0.0 Safari/537.36" etag="UcPA21QCB8WqPWCpxQXi" version="24.5.4" type="onedrive">
  <diagram name="Halaman-1" id="BcCNFPba9Rn7si62IguY">
    <mxGraphModel grid="1" page="1" gridSize="10" guides="1" tooltips="1" connect="1" arrows="1" fold="1" pageScale="1" pageWidth="827" pageHeight="1169" math="0" shadow="0">
      <root>
        <mxCell id="0" />
        <mxCell id="1" parent="0" />
        <mxCell id="YtCVf_-DvIbfJEidi_SI-3" value="" style="edgeStyle=orthogonalEdgeStyle;rounded=0;orthogonalLoop=1;jettySize=auto;html=1;" edge="1" parent="1" source="YtCVf_-DvIbfJEidi_SI-1" target="YtCVf_-DvIbfJEidi_SI-2">
          <mxGeometry relative="1" as="geometry" />
        </mxCell>
        <mxCell id="YtCVf_-DvIbfJEidi_SI-1" value="pengguna" style="rounded=0;whiteSpace=wrap;html=1;" vertex="1" parent="1">
          <mxGeometry x="40" y="40" width="120" height="60" as="geometry" />
        </mxCell>
        <mxCell id="YtCVf_-DvIbfJEidi_SI-6" value="" style="edgeStyle=orthogonalEdgeStyle;rounded=0;orthogonalLoop=1;jettySize=auto;html=1;" edge="1" parent="1" source="YtCVf_-DvIbfJEidi_SI-2" target="YtCVf_-DvIbfJEidi_SI-5">
          <mxGeometry relative="1" as="geometry" />
        </mxCell>
        <mxCell id="YtCVf_-DvIbfJEidi_SI-2" value="pembacaan file" style="ellipse;whiteSpace=wrap;html=1;aspect=fixed;" vertex="1" parent="1">
          <mxGeometry x="240" y="30" width="80" height="80" as="geometry" />
        </mxCell>
        <mxCell id="YtCVf_-DvIbfJEidi_SI-4" value="- nama file&lt;div&gt;- alamat jumlah pasien&lt;/div&gt;" style="text;html=1;align=center;verticalAlign=middle;whiteSpace=wrap;rounded=0;" vertex="1" parent="1">
          <mxGeometry x="160" y="30" width="80" height="30" as="geometry" />
        </mxCell>
        <mxCell id="YtCVf_-DvIbfJEidi_SI-9" value="" style="edgeStyle=orthogonalEdgeStyle;rounded=0;orthogonalLoop=1;jettySize=auto;html=1;" edge="1" parent="1" source="YtCVf_-DvIbfJEidi_SI-5" target="YtCVf_-DvIbfJEidi_SI-8">
          <mxGeometry relative="1" as="geometry" />
        </mxCell>
        <mxCell id="YtCVf_-DvIbfJEidi_SI-5" value="iterasi file" style="ellipse;whiteSpace=wrap;html=1;aspect=fixed;" vertex="1" parent="1">
          <mxGeometry x="400" y="30" width="80" height="80" as="geometry" />
        </mxCell>
        <mxCell id="YtCVf_-DvIbfJEidi_SI-7" value="isi file" style="text;html=1;align=center;verticalAlign=middle;whiteSpace=wrap;rounded=0;" vertex="1" parent="1">
          <mxGeometry x="330" y="40" width="60" height="30" as="geometry" />
        </mxCell>
        <mxCell id="YtCVf_-DvIbfJEidi_SI-12" value="" style="edgeStyle=orthogonalEdgeStyle;rounded=0;orthogonalLoop=1;jettySize=auto;html=1;" edge="1" parent="1" source="YtCVf_-DvIbfJEidi_SI-8" target="YtCVf_-DvIbfJEidi_SI-11">
          <mxGeometry relative="1" as="geometry" />
        </mxCell>
        <mxCell id="YtCVf_-DvIbfJEidi_SI-8" value="parsing berdasarkan karakter" style="ellipse;whiteSpace=wrap;html=1;aspect=fixed;" vertex="1" parent="1">
          <mxGeometry x="560" y="30" width="80" height="80" as="geometry" />
        </mxCell>
        <mxCell id="YtCVf_-DvIbfJEidi_SI-10" value="isi file" style="text;html=1;align=center;verticalAlign=middle;whiteSpace=wrap;rounded=0;" vertex="1" parent="1">
          <mxGeometry x="490" y="40" width="60" height="30" as="geometry" />
        </mxCell>
        <mxCell id="YtCVf_-DvIbfJEidi_SI-16" value="" style="edgeStyle=orthogonalEdgeStyle;rounded=0;orthogonalLoop=1;jettySize=auto;html=1;" edge="1" parent="1" source="YtCVf_-DvIbfJEidi_SI-11" target="YtCVf_-DvIbfJEidi_SI-15">
          <mxGeometry relative="1" as="geometry" />
        </mxCell>
        <mxCell id="YtCVf_-DvIbfJEidi_SI-11" value="alokasi isi file ke dalam array" style="ellipse;whiteSpace=wrap;html=1;aspect=fixed;" vertex="1" parent="1">
          <mxGeometry x="720" y="30" width="80" height="80" as="geometry" />
        </mxCell>
        <mxCell id="YtCVf_-DvIbfJEidi_SI-13" value="isi file" style="text;html=1;align=center;verticalAlign=middle;whiteSpace=wrap;rounded=0;" vertex="1" parent="1">
          <mxGeometry x="650" y="40" width="60" height="30" as="geometry" />
        </mxCell>
        <mxCell id="YtCVf_-DvIbfJEidi_SI-21" value="" style="edgeStyle=orthogonalEdgeStyle;rounded=0;orthogonalLoop=1;jettySize=auto;html=1;" edge="1" parent="1" source="YtCVf_-DvIbfJEidi_SI-15" target="YtCVf_-DvIbfJEidi_SI-20">
          <mxGeometry relative="1" as="geometry" />
        </mxCell>
        <mxCell id="YtCVf_-DvIbfJEidi_SI-15" value="update jumlah pasien" style="ellipse;whiteSpace=wrap;html=1;aspect=fixed;" vertex="1" parent="1">
          <mxGeometry x="720" y="200" width="80" height="80" as="geometry" />
        </mxCell>
        <mxCell id="YtCVf_-DvIbfJEidi_SI-17" value="- isi file&lt;div&gt;- alamat jumlah pasien&lt;/div&gt;" style="text;html=1;align=center;verticalAlign=middle;whiteSpace=wrap;rounded=0;" vertex="1" parent="1">
          <mxGeometry x="760" y="140" width="60" height="30" as="geometry" />
        </mxCell>
        <mxCell id="YtCVf_-DvIbfJEidi_SI-23" style="edgeStyle=orthogonalEdgeStyle;rounded=0;orthogonalLoop=1;jettySize=auto;html=1;entryX=0.5;entryY=1;entryDx=0;entryDy=0;" edge="1" parent="1" source="YtCVf_-DvIbfJEidi_SI-20" target="YtCVf_-DvIbfJEidi_SI-1">
          <mxGeometry relative="1" as="geometry" />
        </mxCell>
        <mxCell id="YtCVf_-DvIbfJEidi_SI-20" value="penutupan file" style="ellipse;whiteSpace=wrap;html=1;aspect=fixed;" vertex="1" parent="1">
          <mxGeometry x="560" y="200" width="80" height="80" as="geometry" />
        </mxCell>
        <mxCell id="YtCVf_-DvIbfJEidi_SI-22" value="isi file" style="text;html=1;align=center;verticalAlign=middle;whiteSpace=wrap;rounded=0;" vertex="1" parent="1">
          <mxGeometry x="650" y="210" width="60" height="30" as="geometry" />
        </mxCell>
        <mxCell id="YtCVf_-DvIbfJEidi_SI-24" value="array data pasien" style="text;html=1;align=center;verticalAlign=middle;whiteSpace=wrap;rounded=0;" vertex="1" parent="1">
          <mxGeometry x="320" y="210" width="140" height="30" as="geometry" />
        </mxCell>
      </root>
    </mxGraphModel>
  </diagram>
</mxfile>
